<svg width="294" height="94" viewBox="0 0 294 94" fill="none" xmlns="http://www.w3.org/2000/svg">
<path d="M107.348 30.9518V60.3876H102.548L102.21 57.5227C100.612 60.0088 98.0432 60.8493 95.5158 60.8493C89.4131 60.8493 84.8199 56.8065 84.8199 49.9877C84.8199 42.8315 89.3243 39.1261 95.3914 39.1261C97.5815 39.1261 100.991 40.304 102.216 42.4526V30.9577H107.348V30.9518ZM89.9518 49.9877C89.9518 53.6102 92.5621 56.0903 95.8472 56.0903C99.0909 56.0903 101.867 53.7345 101.867 49.9877C101.867 46.3652 99.085 43.9265 95.8472 43.9265C92.568 43.9206 89.9518 46.2409 89.9518 49.9877Z" fill="url(#paint0_linear_535_1688)"/>
<path d="M117.411 33.7753C117.411 37.7766 111.349 37.7766 111.349 33.7753C111.349 29.774 117.411 29.774 117.411 33.7753ZM111.811 39.5464V60.3877H116.949V39.5464H111.811Z" fill="url(#paint1_linear_535_1688)"/>
<path d="M137.873 37.5221L141.661 40.3869L139.347 43.3347C140.945 45.1459 141.537 47.2058 141.537 49.4846C141.537 52.0535 140.566 55.6761 137.157 57.2328C140.608 58.9612 141.454 61.4413 141.454 64.099C141.454 69.8287 137.074 73.3624 131.054 73.3624C125.034 73.3624 120.524 69.6985 120.524 64.099H125.62C125.62 66.7922 128.106 68.562 131.054 68.562C134.002 68.562 136.316 66.9638 136.316 64.099C136.316 61.2341 133.623 59.9319 131.054 59.9319C124.567 59.9319 120.524 55.972 120.524 49.4906C120.524 43.0032 125.242 38.9604 131.054 38.9604C132.694 38.9604 134.381 39.1735 135.813 40.1383L137.873 37.5221ZM125.62 49.4846C125.62 53.1071 128.065 55.2558 131.054 55.2558C134.002 55.2558 136.447 53.0657 136.447 49.4846C136.447 45.9036 134.002 43.6306 131.054 43.6306C128.065 43.6306 125.62 45.8621 125.62 49.4846Z" fill="url(#paint2_linear_535_1688)"/>
<path d="M150.427 33.7753C150.427 37.7766 144.366 37.7766 144.366 33.7753C144.366 29.774 150.427 29.774 150.427 33.7753ZM144.822 39.5464V60.3877H149.96V39.5464H144.822Z" fill="url(#paint3_linear_535_1688)"/>
<path d="M162.597 35.9653H153.251V30.9104C161.757 30.9104 168.96 30.9104 177.507 30.9104V35.9653H168.155V60.3876H162.597V35.9653Z" fill="url(#paint4_linear_535_1688)"/>
<path d="M202.853 60.3876H180.787C180.787 50.5737 180.787 40.7243 180.787 30.9104H202.853V36.3027H186.303V43.0801H202.261V48.2594H186.303V54.9124H202.853V60.3876Z" fill="url(#paint5_linear_535_1688)"/>
<path d="M221.043 51.7103H212.703V60.3877H207.145V30.9105C211.779 30.9105 216.408 30.869 221.043 30.869C235.444 30.869 235.485 51.7103 221.043 51.7103ZM212.709 46.6198H221.049C228.163 46.6198 228.122 36.1785 221.049 36.1785H212.709V46.6198Z" fill="url(#paint6_linear_535_1688)"/>
<path d="M249.508 51.7103H241.168V60.3877H235.61V30.9105C240.244 30.9105 244.873 30.869 249.508 30.869C263.909 30.869 263.956 51.7103 249.508 51.7103ZM241.174 46.6198H249.514C256.628 46.6198 256.587 36.1785 249.514 36.1785H241.174V46.6198Z" fill="url(#paint7_linear_535_1688)"/>
<path d="M50.5185 49.0585C51.0453 49.6386 51.5011 50.414 51.5781 51.2782C51.6077 51.6038 51.6136 51.9234 51.6077 52.2489C51.6017 52.5745 51.584 52.9119 51.5425 53.2374C51.5011 53.563 51.4419 53.8945 51.365 54.2259C51.288 54.5633 51.1874 54.883 51.0749 55.2144C50.6132 56.5226 49.826 57.807 48.7132 58.9257C47.6004 60.0444 46.1561 60.9974 44.4751 61.6426C42.7941 62.2878 40.8526 62.6311 38.8283 62.5423C37.6267 62.4949 36.4369 61.9859 35.5905 61.2579C34.7441 60.5239 34.2469 59.5887 34.2646 58.7067C34.2824 57.8248 34.7677 57.1796 35.4484 56.783C35.7858 56.5877 36.1824 56.4456 36.6027 56.3746C37.0229 56.3095 37.4787 56.2858 37.9463 56.345C39.1124 56.4811 40.2725 56.3923 41.338 56.1082C41.8707 55.9721 42.3797 55.7708 42.8533 55.5459C43.09 55.4275 43.3209 55.2973 43.5458 55.1671C43.7648 55.0369 43.9838 54.877 44.1851 54.7291C44.5935 54.4331 44.9605 54.072 45.2919 53.7169C45.4577 53.5334 45.6116 53.3381 45.7536 53.1487C45.8957 52.9533 46.0318 52.7639 46.1561 52.5508C46.6474 51.734 46.973 50.852 47.1506 49.9523C47.2275 49.5735 47.334 49.242 47.4643 48.9698C47.5294 48.8277 47.6004 48.7034 47.6714 48.5909C47.707 48.5377 47.7484 48.4844 47.7839 48.437C47.8253 48.3897 47.8608 48.3423 47.9023 48.3009C48.2338 47.9813 48.6244 47.8688 49.1394 48.0523C49.2518 48.0937 49.3702 48.147 49.4886 48.2121C49.607 48.2772 49.7195 48.3482 49.8378 48.4311C50.0687 48.6087 50.3054 48.8218 50.5185 49.0585Z" fill="url(#paint8_linear_535_1688)"/>
<path d="M49.6484 50.6803C49.4117 51.4261 48.9677 52.2074 48.2515 52.7046C47.192 53.4327 45.949 53.9832 44.5876 54.2318C43.2203 54.4863 41.7227 54.4449 40.1956 54.0424C38.6685 53.6399 37.1236 52.8763 35.7148 51.7339C34.3061 50.5974 33.0571 49.0762 32.116 47.2768C31.5655 46.2114 31.3879 44.9269 31.6129 43.8378C31.6365 43.7016 31.6661 43.5655 31.7017 43.4353C31.7372 43.3051 31.7845 43.1808 31.8319 43.0565C31.9266 42.8138 32.045 42.5829 32.1693 42.3758C32.4297 41.9614 32.773 41.6359 33.1518 41.4169C33.9154 40.9907 34.7204 41.0854 35.407 41.4761C35.7503 41.6714 36.0641 41.9437 36.3363 42.2692C36.4784 42.4349 36.6086 42.6125 36.7211 42.8019C36.8335 42.9914 36.9342 43.1985 37.0348 43.4175C37.4965 44.4948 38.1476 45.4596 38.9289 46.235C39.7102 47.0164 40.6099 47.6142 41.5452 48.0167C42.0246 48.212 42.4922 48.3659 42.9776 48.4665C43.4511 48.5731 43.9424 48.6204 44.4159 48.6323C44.8895 48.6441 45.3689 48.6027 45.8188 48.5317C46.2805 48.4547 46.7303 48.3363 47.1624 48.1943C47.5235 48.07 47.8727 47.993 48.1746 47.9753C48.3226 47.9634 48.4705 47.9575 48.6067 47.9693C48.7428 47.9753 48.8612 48.0049 48.9796 48.0285C49.4354 48.1528 49.7254 48.4488 49.8201 48.9874C49.9089 49.461 49.8438 50.0588 49.6484 50.6803Z" fill="url(#paint9_linear_535_1688)"/>
<path d="M57.4321 44.7909C57.4676 44.0036 57.6926 43.1395 58.2549 42.4706C58.468 42.2161 58.687 41.9911 58.9237 41.7603C59.1605 41.5354 59.4091 41.3104 59.6695 41.1092C59.93 40.9079 60.2082 40.7126 60.4923 40.535C60.7823 40.3515 61.0783 40.1976 61.3979 40.0438C62.6528 39.4459 64.1148 39.0908 65.6952 39.0908C67.2756 39.0849 68.9685 39.4341 70.614 40.1681C72.2595 40.902 73.8754 42.0326 75.2428 43.5242C76.0596 44.4062 76.5391 45.6077 76.6219 46.7205C76.6989 47.8392 76.3911 48.8514 75.7577 49.467C75.1244 50.0767 74.3194 50.1951 73.5617 49.9879C73.1888 49.8873 72.8041 49.7038 72.4549 49.4611C72.1115 49.2125 71.7742 48.9047 71.4841 48.5318C70.7561 47.6084 69.8741 46.8508 68.9152 46.3003C68.4417 46.0221 67.9386 45.8031 67.4473 45.6255C67.1928 45.5426 66.9382 45.4716 66.6896 45.4065C66.441 45.3414 66.1806 45.2999 65.932 45.2644C65.4348 45.1875 64.9198 45.1756 64.4344 45.1993C64.1918 45.2112 63.9432 45.2407 63.7064 45.2763C63.4637 45.3118 63.2388 45.3532 63.002 45.4124C62.0727 45.6432 61.2204 46.0398 60.4627 46.543C60.1431 46.762 59.8294 46.9159 59.5452 47.0165C59.3973 47.0698 59.2611 47.1112 59.1309 47.1349C59.0658 47.1467 59.0007 47.1585 58.9415 47.1585C58.8823 47.1645 58.8172 47.1704 58.758 47.1704C58.2963 47.1645 57.9412 46.9632 57.7103 46.4719C57.657 46.3654 57.6156 46.2411 57.5742 46.1109C57.5387 45.9806 57.5031 45.8504 57.4854 45.7084C57.4321 45.4302 57.4203 45.1105 57.4321 44.7909Z" fill="url(#paint10_linear_535_1688)"/>
<path d="M59.196 44.264C59.8945 43.9029 60.7587 43.6662 61.6169 43.8201C62.8777 44.0568 64.1503 44.5422 65.2868 45.3354C66.4292 46.1226 67.465 47.2117 68.2582 48.5731C69.0514 49.9345 69.6018 51.5682 69.7912 53.3736C69.9807 55.173 69.7912 57.1322 69.1875 59.0677C68.8264 60.2101 68.0392 61.2401 67.1099 61.8557C66.9974 61.9326 66.879 62.0096 66.7607 62.0747C66.6423 62.1398 66.518 62.199 66.3996 62.2522C66.1569 62.3588 65.9142 62.4357 65.6775 62.4949C65.198 62.6015 64.7245 62.5896 64.3042 62.4772C63.4637 62.2404 62.9606 61.6011 62.7534 60.8376C62.6469 60.4528 62.6173 60.0444 62.6587 59.6182C62.6765 59.4051 62.712 59.1861 62.7652 58.9671C62.8185 58.7481 62.8955 58.535 62.9783 58.3101C63.4163 57.221 63.6354 56.0786 63.6294 54.9776C63.6294 53.8708 63.4163 52.8112 63.0375 51.8701C62.8363 51.3966 62.6173 50.9526 62.3391 50.5383C62.0786 50.1299 61.7649 49.751 61.4394 49.4077C61.1138 49.0644 60.7409 48.7566 60.3739 48.4843C59.9951 48.2121 59.5926 47.9753 59.1842 47.7741C58.8409 47.6024 58.539 47.413 58.3141 47.2177C58.2016 47.117 58.0891 47.0164 58.0063 46.9158C57.9175 46.8152 57.8524 46.7145 57.7873 46.608C57.5564 46.1996 57.5564 45.7852 57.8701 45.3354C58.1483 44.9388 58.6159 44.56 59.196 44.264Z" fill="url(#paint11_linear_535_1688)"/>
<path d="M48.5593 39.4281C47.7721 39.3926 46.9079 39.1677 46.239 38.6053C45.9845 38.3922 45.7596 38.1732 45.5287 37.9365C45.3038 37.6997 45.0789 37.4511 44.8776 37.1907C44.6764 36.9302 44.481 36.652 44.3035 36.3679C44.12 36.0779 43.9661 35.7819 43.8122 35.4623C43.2144 34.2074 42.8592 32.7454 42.8592 31.165C42.8533 29.5846 43.2025 27.8917 43.9365 26.2462C44.6705 24.6007 45.801 22.9848 47.2926 21.6174C48.1746 20.8006 49.3762 20.3212 50.489 20.2383C51.6077 20.1613 52.6198 20.4691 53.2354 21.1025C53.8451 21.7358 53.9635 22.5408 53.7563 23.2985C53.6557 23.6714 53.4722 24.0561 53.2295 24.4053C52.9809 24.7487 52.6731 25.086 52.3002 25.3761C51.3768 26.1041 50.6192 26.9861 50.0687 27.945C49.7905 28.4185 49.5715 28.9216 49.3939 29.4129C49.3111 29.6675 49.2341 29.922 49.1749 30.1706C49.1098 30.4192 49.0684 30.6796 49.0329 30.9282C48.9559 31.4254 48.9441 31.9404 48.9677 32.4258C48.9796 32.6685 49.0092 32.9171 49.0447 33.1538C49.0802 33.3965 49.1216 33.6214 49.1808 33.8582C49.4117 34.7875 49.8083 35.6398 50.3114 36.3975C50.5304 36.7171 50.6843 37.0308 50.7849 37.315C50.8382 37.4629 50.8796 37.5991 50.9033 37.7293C50.9151 37.7944 50.927 37.8595 50.927 37.9187C50.9329 37.9779 50.9388 38.043 50.9388 38.1022C50.9329 38.5639 50.7316 38.919 50.2404 39.1499C50.1338 39.2032 50.0095 39.2446 49.8793 39.286C49.7491 39.3215 49.6188 39.3571 49.4768 39.3748C49.1986 39.4281 48.879 39.4399 48.5593 39.4281Z" fill="url(#paint12_linear_535_1688)"/>
<path d="M48.0325 37.6643C47.6714 36.9658 47.4347 36.1016 47.5886 35.2433C47.8253 33.9826 48.3107 32.7099 49.1039 31.5735C49.8911 30.4311 50.9802 29.3952 52.3416 28.6021C53.703 27.8089 55.3367 27.2584 57.142 27.069C58.9415 26.8796 60.9007 27.069 62.8362 27.6728C63.9786 28.0338 65.0086 28.8211 65.6241 29.7504C65.7011 29.8628 65.778 29.9812 65.8432 30.0996C65.9083 30.218 65.9675 30.3423 66.0207 30.4607C66.1273 30.7034 66.2042 30.946 66.2634 31.1828C66.37 31.6623 66.3581 32.1358 66.2457 32.5561C66.0089 33.3966 65.3696 33.8997 64.6061 34.1069C64.2213 34.2134 63.8129 34.243 63.3867 34.2016C63.1736 34.1838 62.9546 34.1483 62.7356 34.095C62.5166 34.0417 62.3035 33.9648 62.0786 33.8819C60.9895 33.4439 59.8471 33.2249 58.7461 33.2308C57.6393 33.2308 56.5797 33.4439 55.6386 33.8227C55.1651 34.024 54.7211 34.243 54.3068 34.5212C53.8984 34.7816 53.5195 35.0954 53.1762 35.4209C52.8329 35.7465 52.5251 36.1194 52.2528 36.4864C51.9806 36.8652 51.7438 37.2677 51.5426 37.6761C51.3709 38.0194 51.1815 38.3213 50.9862 38.5462C50.8855 38.6587 50.7849 38.7711 50.6843 38.854C50.5837 38.9428 50.483 39.0079 50.3765 39.073C49.9681 39.3039 49.5537 39.3039 49.1039 38.9901C48.7073 38.7119 48.3285 38.2443 48.0325 37.6643Z" fill="url(#paint13_linear_535_1688)"/>
<path d="M52.0869 47.1587C53.9666 47.1587 55.4904 45.6349 55.4904 43.7552C55.4904 41.8755 53.9666 40.3517 52.0869 40.3517C50.2072 40.3517 48.6834 41.8755 48.6834 43.7552C48.6834 45.6349 50.2072 47.1587 52.0869 47.1587Z" fill="url(#paint14_linear_535_1688)"/>
<defs>
<linearGradient id="paint0_linear_535_1688" x1="96.0817" y1="30.9535" x2="96.0817" y2="60.8509" gradientUnits="userSpaceOnUse">
<stop stop-color="#58595B"/>
<stop offset="1"/>
</linearGradient>
<linearGradient id="paint1_linear_535_1688" x1="114.379" y1="30.7746" x2="114.379" y2="60.388" gradientUnits="userSpaceOnUse">
<stop stop-color="#58595B"/>
<stop offset="1"/>
</linearGradient>
<linearGradient id="paint2_linear_535_1688" x1="131.096" y1="37.5226" x2="131.096" y2="73.3577" gradientUnits="userSpaceOnUse">
<stop stop-color="#58595B"/>
<stop offset="1"/>
</linearGradient>
<linearGradient id="paint3_linear_535_1688" x1="147.393" y1="30.7746" x2="147.393" y2="60.388" gradientUnits="userSpaceOnUse">
<stop stop-color="#58595B"/>
<stop offset="1"/>
</linearGradient>
<linearGradient id="paint4_linear_535_1688" x1="165.374" y1="30.9113" x2="165.374" y2="60.3879" gradientUnits="userSpaceOnUse">
<stop stop-color="#58595B"/>
<stop offset="1"/>
</linearGradient>
<linearGradient id="paint5_linear_535_1688" x1="191.819" y1="30.9113" x2="191.819" y2="60.3879" gradientUnits="userSpaceOnUse">
<stop stop-color="#58595B"/>
<stop offset="1"/>
</linearGradient>
<linearGradient id="paint6_linear_535_1688" x1="219.504" y1="30.8691" x2="219.504" y2="60.388" gradientUnits="userSpaceOnUse">
<stop stop-color="#58595B"/>
<stop offset="1"/>
</linearGradient>
<linearGradient id="paint7_linear_535_1688" x1="247.97" y1="30.8691" x2="247.97" y2="60.388" gradientUnits="userSpaceOnUse">
<stop stop-color="#58595B"/>
<stop offset="1"/>
</linearGradient>
<linearGradient id="paint8_linear_535_1688" x1="43.3409" y1="47.6979" x2="42.5589" y2="62.7467" gradientUnits="userSpaceOnUse">
<stop stop-color="#70CDDD"/>
<stop offset="0.5054" stop-color="#48A4DB"/>
<stop offset="1" stop-color="#4067B1"/>
</linearGradient>
<linearGradient id="paint9_linear_535_1688" x1="40.9759" y1="41.4948" x2="40.3116" y2="54.2782" gradientUnits="userSpaceOnUse">
<stop stop-color="#70CDDD"/>
<stop offset="0.5054" stop-color="#48A4DB"/>
<stop offset="1" stop-color="#4067B1"/>
</linearGradient>
<linearGradient id="paint10_linear_535_1688" x1="72.7754" y1="40.7207" x2="61.5827" y2="50.809" gradientUnits="userSpaceOnUse">
<stop stop-color="#8DC85C"/>
<stop offset="1" stop-color="#2BB673"/>
</linearGradient>
<linearGradient id="paint11_linear_535_1688" x1="68.3773" y1="48.2976" x2="58.8693" y2="56.8673" gradientUnits="userSpaceOnUse">
<stop stop-color="#8DC85C"/>
<stop offset="1" stop-color="#2BB673"/>
</linearGradient>
<linearGradient id="paint12_linear_535_1688" x1="55.8882" y1="23.9897" x2="43.2609" y2="35.371" gradientUnits="userSpaceOnUse">
<stop stop-color="#F6EB16"/>
<stop offset="0.5054" stop-color="#F9A11B"/>
<stop offset="1" stop-color="#F05523"/>
</linearGradient>
<linearGradient id="paint13_linear_535_1688" x1="63.2906" y1="27.0187" x2="49.4941" y2="39.4538" gradientUnits="userSpaceOnUse">
<stop stop-color="#F6EB16"/>
<stop offset="0.5054" stop-color="#F9A11B"/>
<stop offset="1" stop-color="#F05523"/>
</linearGradient>
<linearGradient id="paint14_linear_535_1688" x1="52.2634" y1="40.3601" x2="51.9101" y2="47.1591" gradientUnits="userSpaceOnUse">
<stop stop-color="#58595B"/>
<stop offset="1"/>
</linearGradient>
</defs>
</svg>
